<?xml version="1.0" encoding="UTF-8" standalone="no"?>
<svg
   xmlns:dc="http://purl.org/dc/elements/1.1/"
   xmlns:cc="http://creativecommons.org/ns#"
   xmlns:rdf="http://www.w3.org/1999/02/22-rdf-syntax-ns#"
   xmlns:svg="http://www.w3.org/2000/svg"
   xmlns="http://www.w3.org/2000/svg"
   xmlns:sodipodi="http://sodipodi.sourceforge.net/DTD/sodipodi-0.dtd"
   xmlns:inkscape="http://www.inkscape.org/namespaces/inkscape"
   version="1.1"
   x="0px"
   y="0px"
   viewBox="0 0 29.714628 50.931637"
   enable-background="new 0 0 70.667 100"
   xml:space="preserve"
   id="svg4191"
   inkscape:version="0.91 r13725"
   sodipodi:docname="switch-on.svg"
   width="29.714628"
   height="50.931637"><metadata
     id="metadata4201"><rdf:RDF><cc:Work
         rdf:about=""><dc:format>image/svg+xml</dc:format><dc:type
           rdf:resource="http://purl.org/dc/dcmitype/StillImage" /><dc:title></dc:title></cc:Work></rdf:RDF></metadata><defs
     id="defs4199" /><sodipodi:namedview
     pagecolor="#ffffff"
     bordercolor="#666666"
     borderopacity="1"
     objecttolerance="10"
     gridtolerance="10"
     guidetolerance="10"
     inkscape:pageopacity="0"
     inkscape:pageshadow="2"
     inkscape:window-width="1920"
     inkscape:window-height="1016"
     id="namedview4197"
     showgrid="false"
     showguides="false"
     inkscape:guide-bbox="true"
     fit-margin-top="0"
     fit-margin-left="0"
     fit-margin-right="0"
     fit-margin-bottom="0"
     inkscape:zoom="4"
     inkscape:cx="-28.645016"
     inkscape:cy="26.359372"
     inkscape:window-x="0"
     inkscape:window-y="27"
     inkscape:window-maximized="1"
     inkscape:current-layer="layer2"><sodipodi:guide
       position="26.771484,8.609372"
       orientation="0,1"
       id="guide4756" /><sodipodi:guide
       position="-3.478516,41.359372"
       orientation="0,1"
       id="guide4758" /></sodipodi:namedview><g
     inkscape:groupmode="layer"
     id="layer1"
     inkscape:label="Layer 1"
     style="display:inline"
     transform="translate(-23.478516,-25.427735)" /><g
     inkscape:groupmode="layer"
     id="layer2"
     inkscape:label="Layer 2"
     style="display:inline"
     transform="translate(-23.478516,-25.427735)"><path
       sodipodi:type="inkscape:offset"
       inkscape:radius="0"
       inkscape:original="M 24.087891 28.927734 C 23.752891 28.927734 23.478516 29.201109 23.478516 29.537109 L 23.478516 60.902344 C 23.478516 61.237344 23.598094 61.757594 23.746094 62.058594 L 27.929688 70.679688 C 28.076687 70.979687 28.200125 71.211359 28.203125 71.193359 C 28.208125 71.173359 28.234672 71.201813 28.263672 71.257812 C 28.291672 71.312813 28.588828 71.359375 28.923828 71.359375 L 48.9375 71.359375 C 49.2735 71.359375 49.655109 71.106875 49.787109 70.796875 L 53.105469 62.984375 C 53.236469 62.674375 53.218406 62.177859 53.066406 61.880859 L 47.902344 51.753906 C 47.751344 51.454906 47.628906 50.936563 47.628906 50.601562 L 47.628906 29.537109 C 47.628906 29.202109 47.353578 28.927734 47.017578 28.927734 L 24.087891 28.927734 z M 29.199219 34.037109 L 41.048828 34.037109 L 41.048828 34.039062 C 41.383828 34.039062 42.517437 35.63325 42.898438 37.78125 C 43.508437 41.21025 43.419922 47.578797 43.419922 47.591797 C 43.419922 47.603797 43.145547 47.613281 42.810547 47.613281 L 29.199219 47.613281 C 28.863219 47.613281 28.589844 47.339906 28.589844 47.003906 L 28.589844 34.648438 C 28.589844 34.312438 28.863219 34.037109 29.199219 34.037109 z M 30.052734 51.697266 L 42.587891 51.697266 C 42.923891 51.697266 43.325469 51.939328 43.480469 52.236328 L 46.890625 58.732422 C 47.045625 59.030422 46.899453 59.273438 46.564453 59.273438 L 33.1875 59.273438 C 32.8525 59.273438 32.474703 59.019031 32.345703 58.707031 L 29.675781 52.261719 C 29.547781 51.950719 29.717734 51.697266 30.052734 51.697266 z M 33.833984 63.353516 L 47.896484 63.353516 C 48.231484 63.353516 48.398625 63.606063 48.265625 63.914062 L 46.910156 67.070312 C 46.777156 67.378313 46.396547 67.630859 46.060547 67.630859 L 32.277344 67.630859 C 31.941344 67.630859 31.759953 67.373594 31.876953 67.058594 L 33.015625 63.929688 C 33.132625 63.612687 33.497984 63.353516 33.833984 63.353516 z "
       id="path4743"
       d="m 24.087891,28.927734 c -0.335,0 -0.609375,0.273375 -0.609375,0.609375 l 0,31.365235 c 0,0.335 0.119578,0.85525 0.267578,1.15625 l 4.183594,8.621094 c 0.146999,0.299999 0.270437,0.531671 0.273437,0.513671 0.005,-0.02 0.03155,0.0085 0.06055,0.06445 0.028,0.055 0.325156,0.101563 0.660156,0.101563 l 20.013672,0 c 0.336,0 0.717609,-0.2525 0.849609,-0.5625 l 3.31836,-7.8125 c 0.131,-0.31 0.112937,-0.806516 -0.03906,-1.103516 L 47.902344,51.753906 c -0.151,-0.299 -0.273438,-0.817343 -0.273438,-1.152344 l 0,-21.064453 c 0,-0.335 -0.275328,-0.609375 -0.611328,-0.609375 l -22.929687,0 z m 5.111328,5.109375 11.849609,0 0,0.002 c 0.335,0 1.468609,1.594188 1.84961,3.742188 0.609999,3.429 0.521484,9.797547 0.521484,9.810547 0,0.012 -0.274375,0.02148 -0.609375,0.02148 l -13.611328,0 c -0.336,0 -0.609375,-0.273375 -0.609375,-0.609375 l 0,-12.355468 c 0,-0.336 0.273375,-0.611329 0.609375,-0.611329 z m 0.853515,17.660157 12.535157,0 c 0.336,0 0.737578,0.242062 0.892578,0.539062 l 3.410156,6.496094 c 0.155,0.298 0.0088,0.541016 -0.326172,0.541016 l -13.376953,0 c -0.335,0 -0.712797,-0.254407 -0.841797,-0.566407 l -2.669922,-6.445312 c -0.128,-0.311 0.04195,-0.564453 0.376953,-0.564453 z m 3.78125,11.65625 14.0625,0 c 0.335,0 0.502141,0.252547 0.369141,0.560546 l -1.355469,3.15625 c -0.133,0.308001 -0.513609,0.560547 -0.849609,0.560547 l -13.783203,0 c -0.336,0 -0.517391,-0.257265 -0.400391,-0.572265 l 1.138672,-3.128906 c 0.117,-0.317001 0.482359,-0.576172 0.818359,-0.576172 z"
       transform="matrix(1,0,0,-1,0,96.78711)"
       style="fill:#ffffff" /></g></svg>