<?xml version="1.0" encoding="UTF-8" standalone="no"?>
<svg
   xmlns:dc="http://purl.org/dc/elements/1.1/"
   xmlns:cc="http://creativecommons.org/ns#"
   xmlns:rdf="http://www.w3.org/1999/02/22-rdf-syntax-ns#"
   xmlns:svg="http://www.w3.org/2000/svg"
   xmlns="http://www.w3.org/2000/svg"
   xmlns:sodipodi="http://sodipodi.sourceforge.net/DTD/sodipodi-0.dtd"
   xmlns:inkscape="http://www.inkscape.org/namespaces/inkscape"
   version="1.1"
   x="0px"
   y="0px"
   viewBox="0 0 29.714628 50.931637"
   enable-background="new 0 0 70.667 100"
   xml:space="preserve"
   id="svg4191"
   inkscape:version="0.91 r13725"
   sodipodi:docname="switch-off.svg"
   width="29.714628"
   height="50.931637"><metadata
     id="metadata4201"><rdf:RDF><cc:Work
         rdf:about=""><dc:format>image/svg+xml</dc:format><dc:type
           rdf:resource="http://purl.org/dc/dcmitype/StillImage" /><dc:title></dc:title></cc:Work></rdf:RDF></metadata><defs
     id="defs4199" /><sodipodi:namedview
     pagecolor="#ffffff"
     bordercolor="#666666"
     borderopacity="1"
     objecttolerance="10"
     gridtolerance="10"
     guidetolerance="10"
     inkscape:pageopacity="0"
     inkscape:pageshadow="2"
     inkscape:window-width="1920"
     inkscape:window-height="1016"
     id="namedview4197"
     showgrid="false"
     showguides="false"
     inkscape:guide-bbox="true"
     fit-margin-top="0"
     fit-margin-left="0"
     fit-margin-right="0"
     fit-margin-bottom="0"
     inkscape:zoom="4"
     inkscape:cx="-28.645016"
     inkscape:cy="26.359372"
     inkscape:window-x="0"
     inkscape:window-y="27"
     inkscape:window-maximized="1"
     inkscape:current-layer="layer1"><sodipodi:guide
       position="26.771484,8.609372"
       orientation="0,1"
       id="guide4756" /><sodipodi:guide
       position="-3.478516,41.359372"
       orientation="0,1"
       id="guide4758" /></sodipodi:namedview><g
     inkscape:groupmode="layer"
     id="layer1"
     inkscape:label="Layer 1"
     style="display:inline"
     transform="translate(-23.478516,-25.427735)"><path
       d="m 24.087891,34.427734 c -0.335,0 -0.609375,0.273375 -0.609375,0.609375 l 0,30.865235 c 0,0.335 0.119578,0.85525 0.267578,1.15625 l 4.183594,8.621094 c 0.146999,0.299999 0.270437,0.531671 0.273437,0.513671 0.005,-0.02 0.03155,0.0085 0.06055,0.06445 0.028,0.055 0.325156,0.101563 0.660156,0.101563 l 20.013672,0 c 0.336,0 0.717609,-0.2525 0.849609,-0.5625 l 3.31836,-7.8125 c 0.131,-0.31 0.112937,-0.806516 -0.03906,-1.103516 l -5.164068,-10.12695 c -0.151,-0.299 -0.273438,-0.817343 -0.273438,-1.152344 l 0,-20.564453 c 0,-0.335 -0.275328,-0.609375 -0.611328,-0.609375 z m 5.111328,4.609375 11.849609,0 0,0.002 c 0.335,0 1.468609,1.594188 1.84961,3.742188 0.609999,3.429 0.521484,9.797547 0.521484,9.810547 0,0.012 -0.274375,0.02148 -0.609375,0.02148 l -13.611328,0 c -0.336,0 -0.609375,-0.273375 -0.609375,-0.609375 l 0,-12.355468 c 0,-0.336 0.273375,-0.611329 0.609375,-0.611329 z m 0.853515,17.660157 12.535157,0 c 0.336,0 0.737578,0.242062 0.892578,0.539062 l 3.410156,6.496094 c 0.155,0.298 0.0088,0.541016 -0.326172,0.541016 l -13.376953,0 c -0.335,0 -0.712797,-0.254407 -0.841797,-0.566407 l -2.669922,-6.445312 c -0.128,-0.311 0.04195,-0.564453 0.376953,-0.564453 z m 3.78125,11.65625 14.0625,0 c 0.335,0 0.502141,0.252547 0.369141,0.560546 l -1.355469,3.15625 c -0.133,0.308001 -0.513609,0.560547 -0.849609,0.560547 l -13.783203,0 c -0.336,0 -0.517391,-0.257265 -0.400391,-0.572265 l 1.138672,-3.128906 c 0.117,-0.317001 0.482359,-0.576172 0.818359,-0.576172 z"
       id="path4745"
       inkscape:connector-curvature="0"
       sodipodi:nodetypes="sssccccssccccssssccccsssssccssccssccsssccssccs"
       style="fill:#ffffff" /></g><g
     inkscape:groupmode="layer"
     id="layer2"
     inkscape:label="Layer 2"
     style="display:inline"
     transform="translate(-23.478516,-25.427735)" /></svg>